<svg xmlns="http://www.w3.org/2000/svg" width="450" height="850" viewBox="0 0 450 850" shape-rendering="crispEdges">
<title>f0060 t=2.00s countdown: 1</title>
<desc>17x9 Tetris, seed 42, demo bot; frame 60 (t=2.00 s); phase countdown, score 0, level 0; SPEC 9.4 digest 1903793751fb0ba9cc57c44af912497327b2488037012a4729e99edcd31d3722</desc>
<rect width="450" height="850" fill="#000000"/>
<rect x="0" y="0" width="50" height="50" fill="#000000"/>
<rect x="50" y="0" width="50" height="50" fill="#000000"/>
<rect x="100" y="0" width="50" height="50" fill="#000000"/>
<rect x="150" y="0" width="50" height="50" fill="#000000"/>
<rect x="200" y="0" width="50" height="50" fill="#000000"/>
<rect x="250" y="0" width="50" height="50" fill="#000000"/>
<rect x="300" y="0" width="50" height="50" fill="#000000"/>
<rect x="350" y="0" width="50" height="50" fill="#000000"/>
<rect x="400" y="0" width="50" height="50" fill="#000000"/>
<rect x="0" y="50" width="50" height="50" fill="#000000"/>
<rect x="50" y="50" width="50" height="50" fill="#000000"/>
<rect x="100" y="50" width="50" height="50" fill="#000000"/>
<rect x="150" y="50" width="50" height="50" fill="#000000"/>
<rect x="200" y="50" width="50" height="50" fill="#000000"/>
<rect x="250" y="50" width="50" height="50" fill="#000000"/>
<rect x="300" y="50" width="50" height="50" fill="#000000"/>
<rect x="350" y="50" width="50" height="50" fill="#000000"/>
<rect x="400" y="50" width="50" height="50" fill="#000000"/>
<rect x="0" y="100" width="50" height="50" fill="#000000"/>
<rect x="50" y="100" width="50" height="50" fill="#000000"/>
<rect x="100" y="100" width="50" height="50" fill="#000000"/>
<rect x="150" y="100" width="50" height="50" fill="#000000"/>
<rect x="200" y="100" width="50" height="50" fill="#000000"/>
<rect x="250" y="100" width="50" height="50" fill="#000000"/>
<rect x="300" y="100" width="50" height="50" fill="#000000"/>
<rect x="350" y="100" width="50" height="50" fill="#000000"/>
<rect x="400" y="100" width="50" height="50" fill="#000000"/>
<rect x="0" y="150" width="50" height="50" fill="#000000"/>
<rect x="50" y="150" width="50" height="50" fill="#000000"/>
<rect x="100" y="150" width="50" height="50" fill="#000000"/>
<rect x="150" y="150" width="50" height="50" fill="#000000"/>
<rect x="200" y="150" width="50" height="50" fill="#ffffff"/>
<rect x="250" y="150" width="50" height="50" fill="#ffffff"/>
<rect x="300" y="150" width="50" height="50" fill="#000000"/>
<rect x="350" y="150" width="50" height="50" fill="#000000"/>
<rect x="400" y="150" width="50" height="50" fill="#000000"/>
<rect x="0" y="200" width="50" height="50" fill="#000000"/>
<rect x="50" y="200" width="50" height="50" fill="#000000"/>
<rect x="100" y="200" width="50" height="50" fill="#000000"/>
<rect x="150" y="200" width="50" height="50" fill="#000000"/>
<rect x="200" y="200" width="50" height="50" fill="#ffffff"/>
<rect x="250" y="200" width="50" height="50" fill="#ffffff"/>
<rect x="300" y="200" width="50" height="50" fill="#000000"/>
<rect x="350" y="200" width="50" height="50" fill="#000000"/>
<rect x="400" y="200" width="50" height="50" fill="#000000"/>
<rect x="0" y="250" width="50" height="50" fill="#000000"/>
<rect x="50" y="250" width="50" height="50" fill="#000000"/>
<rect x="100" y="250" width="50" height="50" fill="#000000"/>
<rect x="150" y="250" width="50" height="50" fill="#000000"/>
<rect x="200" y="250" width="50" height="50" fill="#ffffff"/>
<rect x="250" y="250" width="50" height="50" fill="#ffffff"/>
<rect x="300" y="250" width="50" height="50" fill="#000000"/>
<rect x="350" y="250" width="50" height="50" fill="#000000"/>
<rect x="400" y="250" width="50" height="50" fill="#000000"/>
<rect x="0" y="300" width="50" height="50" fill="#000000"/>
<rect x="50" y="300" width="50" height="50" fill="#000000"/>
<rect x="100" y="300" width="50" height="50" fill="#000000"/>
<rect x="150" y="300" width="50" height="50" fill="#000000"/>
<rect x="200" y="300" width="50" height="50" fill="#ffffff"/>
<rect x="250" y="300" width="50" height="50" fill="#ffffff"/>
<rect x="300" y="300" width="50" height="50" fill="#000000"/>
<rect x="350" y="300" width="50" height="50" fill="#000000"/>
<rect x="400" y="300" width="50" height="50" fill="#000000"/>
<rect x="0" y="350" width="50" height="50" fill="#000000"/>
<rect x="50" y="350" width="50" height="50" fill="#000000"/>
<rect x="100" y="350" width="50" height="50" fill="#000000"/>
<rect x="150" y="350" width="50" height="50" fill="#000000"/>
<rect x="200" y="350" width="50" height="50" fill="#ffffff"/>
<rect x="250" y="350" width="50" height="50" fill="#ffffff"/>
<rect x="300" y="350" width="50" height="50" fill="#000000"/>
<rect x="350" y="350" width="50" height="50" fill="#000000"/>
<rect x="400" y="350" width="50" height="50" fill="#000000"/>
<rect x="0" y="400" width="50" height="50" fill="#000000"/>
<rect x="50" y="400" width="50" height="50" fill="#000000"/>
<rect x="100" y="400" width="50" height="50" fill="#000000"/>
<rect x="150" y="400" width="50" height="50" fill="#000000"/>
<rect x="200" y="400" width="50" height="50" fill="#ffffff"/>
<rect x="250" y="400" width="50" height="50" fill="#ffffff"/>
<rect x="300" y="400" width="50" height="50" fill="#000000"/>
<rect x="350" y="400" width="50" height="50" fill="#000000"/>
<rect x="400" y="400" width="50" height="50" fill="#000000"/>
<rect x="0" y="450" width="50" height="50" fill="#000000"/>
<rect x="50" y="450" width="50" height="50" fill="#000000"/>
<rect x="100" y="450" width="50" height="50" fill="#000000"/>
<rect x="150" y="450" width="50" height="50" fill="#000000"/>
<rect x="200" y="450" width="50" height="50" fill="#ffffff"/>
<rect x="250" y="450" width="50" height="50" fill="#ffffff"/>
<rect x="300" y="450" width="50" height="50" fill="#000000"/>
<rect x="350" y="450" width="50" height="50" fill="#000000"/>
<rect x="400" y="450" width="50" height="50" fill="#000000"/>
<rect x="0" y="500" width="50" height="50" fill="#000000"/>
<rect x="50" y="500" width="50" height="50" fill="#000000"/>
<rect x="100" y="500" width="50" height="50" fill="#000000"/>
<rect x="150" y="500" width="50" height="50" fill="#000000"/>
<rect x="200" y="500" width="50" height="50" fill="#ffffff"/>
<rect x="250" y="500" width="50" height="50" fill="#ffffff"/>
<rect x="300" y="500" width="50" height="50" fill="#000000"/>
<rect x="350" y="500" width="50" height="50" fill="#000000"/>
<rect x="400" y="500" width="50" height="50" fill="#000000"/>
<rect x="0" y="550" width="50" height="50" fill="#000000"/>
<rect x="50" y="550" width="50" height="50" fill="#000000"/>
<rect x="100" y="550" width="50" height="50" fill="#000000"/>
<rect x="150" y="550" width="50" height="50" fill="#000000"/>
<rect x="200" y="550" width="50" height="50" fill="#ffffff"/>
<rect x="250" y="550" width="50" height="50" fill="#ffffff"/>
<rect x="300" y="550" width="50" height="50" fill="#000000"/>
<rect x="350" y="550" width="50" height="50" fill="#000000"/>
<rect x="400" y="550" width="50" height="50" fill="#000000"/>
<rect x="0" y="600" width="50" height="50" fill="#000000"/>
<rect x="50" y="600" width="50" height="50" fill="#000000"/>
<rect x="100" y="600" width="50" height="50" fill="#000000"/>
<rect x="150" y="600" width="50" height="50" fill="#000000"/>
<rect x="200" y="600" width="50" height="50" fill="#ffffff"/>
<rect x="250" y="600" width="50" height="50" fill="#ffffff"/>
<rect x="300" y="600" width="50" height="50" fill="#000000"/>
<rect x="350" y="600" width="50" height="50" fill="#000000"/>
<rect x="400" y="600" width="50" height="50" fill="#000000"/>
<rect x="0" y="650" width="50" height="50" fill="#000000"/>
<rect x="50" y="650" width="50" height="50" fill="#000000"/>
<rect x="100" y="650" width="50" height="50" fill="#000000"/>
<rect x="150" y="650" width="50" height="50" fill="#000000"/>
<rect x="200" y="650" width="50" height="50" fill="#000000"/>
<rect x="250" y="650" width="50" height="50" fill="#000000"/>
<rect x="300" y="650" width="50" height="50" fill="#000000"/>
<rect x="350" y="650" width="50" height="50" fill="#000000"/>
<rect x="400" y="650" width="50" height="50" fill="#000000"/>
<rect x="0" y="700" width="50" height="50" fill="#000000"/>
<rect x="50" y="700" width="50" height="50" fill="#000000"/>
<rect x="100" y="700" width="50" height="50" fill="#000000"/>
<rect x="150" y="700" width="50" height="50" fill="#000000"/>
<rect x="200" y="700" width="50" height="50" fill="#000000"/>
<rect x="250" y="700" width="50" height="50" fill="#000000"/>
<rect x="300" y="700" width="50" height="50" fill="#000000"/>
<rect x="350" y="700" width="50" height="50" fill="#000000"/>
<rect x="400" y="700" width="50" height="50" fill="#000000"/>
<rect x="0" y="750" width="50" height="50" fill="#000000"/>
<rect x="50" y="750" width="50" height="50" fill="#000000"/>
<rect x="100" y="750" width="50" height="50" fill="#000000"/>
<rect x="150" y="750" width="50" height="50" fill="#000000"/>
<rect x="200" y="750" width="50" height="50" fill="#000000"/>
<rect x="250" y="750" width="50" height="50" fill="#000000"/>
<rect x="300" y="750" width="50" height="50" fill="#000000"/>
<rect x="350" y="750" width="50" height="50" fill="#000000"/>
<rect x="400" y="750" width="50" height="50" fill="#000000"/>
<rect x="0" y="800" width="50" height="50" fill="#000000"/>
<rect x="50" y="800" width="50" height="50" fill="#000000"/>
<rect x="100" y="800" width="50" height="50" fill="#000000"/>
<rect x="150" y="800" width="50" height="50" fill="#000000"/>
<rect x="200" y="800" width="50" height="50" fill="#000000"/>
<rect x="250" y="800" width="50" height="50" fill="#000000"/>
<rect x="300" y="800" width="50" height="50" fill="#000000"/>
<rect x="350" y="800" width="50" height="50" fill="#000000"/>
<rect x="400" y="800" width="50" height="50" fill="#000000"/>
</svg>
