<svg xmlns="http://www.w3.org/2000/svg" width="432" height="996" viewBox="0 0 432 996" shape-rendering="crispEdges">
<title>f0091 t=3.03s first spawn, frame 91 = first logical play frame</title>
<desc>17x9 Tetris, seed 42, demo bot; frame 91 (t=3.03 s); phase playing, score 0, level 0; SPEC 9.4 digest 1a26ee7e4b911824fd9709a1fd0186104084747b218fc3de1b3ac855eb782207</desc>
<rect width="432" height="996" fill="#0a0e1a"/>
<rect x="160" y="116" width="92" height="34" fill="#545860"/>
<path d="M162 116A44 44 0 0 1 250 116Z" fill="#c4c8d0" shape-rendering="auto"/>
<rect x="44" y="150" width="324" height="776" fill="#464950"/>
<rect x="44" y="798" width="324" height="128" fill="#34373d"/>
<rect x="44" y="182" width="324" height="4" fill="#545860"/>
<rect x="64" y="156" width="22" height="24" fill="#16181e"/>
<rect x="96" y="156" width="22" height="24" fill="#16181e"/>
<rect x="128" y="156" width="22" height="24" fill="#16181e"/>
<rect x="160" y="156" width="22" height="24" fill="#16181e"/>
<rect x="192" y="156" width="22" height="24" fill="#16181e"/>
<rect x="224" y="156" width="22" height="24" fill="#16181e"/>
<rect x="256" y="156" width="22" height="24" fill="#16181e"/>
<rect x="288" y="156" width="22" height="24" fill="#16181e"/>
<rect x="320" y="156" width="22" height="24" fill="#16181e"/>
<rect x="44" y="218" width="324" height="4" fill="#545860"/>
<rect x="64" y="192" width="22" height="24" fill="#000000"/>
<rect x="96" y="192" width="22" height="24" fill="#000000"/>
<rect x="128" y="192" width="22" height="24" fill="#000000"/>
<rect x="160" y="192" width="22" height="24" fill="#0000ff"/>
<rect x="192" y="192" width="22" height="24" fill="#000000"/>
<rect x="224" y="192" width="22" height="24" fill="#000000"/>
<rect x="256" y="192" width="22" height="24" fill="#000000"/>
<rect x="288" y="192" width="22" height="24" fill="#000000"/>
<rect x="320" y="192" width="22" height="24" fill="#000000"/>
<text x="36" y="210" font-family="DejaVu Sans Mono,Menlo,Consolas,monospace" font-size="11" fill="#969eb0" text-anchor="end" shape-rendering="auto">20</text>
<rect x="44" y="254" width="324" height="4" fill="#545860"/>
<rect x="64" y="228" width="22" height="24" fill="#000000"/>
<rect x="96" y="228" width="22" height="24" fill="#000000"/>
<rect x="128" y="228" width="22" height="24" fill="#000000"/>
<rect x="160" y="228" width="22" height="24" fill="#0000ff"/>
<rect x="192" y="228" width="22" height="24" fill="#0000ff"/>
<rect x="224" y="228" width="22" height="24" fill="#0000ff"/>
<rect x="256" y="228" width="22" height="24" fill="#000000"/>
<rect x="288" y="228" width="22" height="24" fill="#000000"/>
<rect x="320" y="228" width="22" height="24" fill="#000000"/>
<rect x="44" y="290" width="324" height="4" fill="#545860"/>
<rect x="64" y="264" width="22" height="24" fill="#000000"/>
<rect x="96" y="264" width="22" height="24" fill="#000000"/>
<rect x="128" y="264" width="22" height="24" fill="#000000"/>
<rect x="160" y="264" width="22" height="24" fill="#000000"/>
<rect x="192" y="264" width="22" height="24" fill="#000000"/>
<rect x="224" y="264" width="22" height="24" fill="#000000"/>
<rect x="256" y="264" width="22" height="24" fill="#000000"/>
<rect x="288" y="264" width="22" height="24" fill="#000000"/>
<rect x="320" y="264" width="22" height="24" fill="#000000"/>
<text x="36" y="282" font-family="DejaVu Sans Mono,Menlo,Consolas,monospace" font-size="11" fill="#969eb0" text-anchor="end" shape-rendering="auto">18</text>
<rect x="44" y="326" width="324" height="4" fill="#545860"/>
<rect x="64" y="300" width="22" height="24" fill="#000000"/>
<rect x="96" y="300" width="22" height="24" fill="#000000"/>
<rect x="128" y="300" width="22" height="24" fill="#000000"/>
<rect x="160" y="300" width="22" height="24" fill="#000000"/>
<rect x="192" y="300" width="22" height="24" fill="#000000"/>
<rect x="224" y="300" width="22" height="24" fill="#000000"/>
<rect x="256" y="300" width="22" height="24" fill="#000000"/>
<rect x="288" y="300" width="22" height="24" fill="#000000"/>
<rect x="320" y="300" width="22" height="24" fill="#000000"/>
<rect x="44" y="362" width="324" height="4" fill="#545860"/>
<rect x="64" y="336" width="22" height="24" fill="#000000"/>
<rect x="96" y="336" width="22" height="24" fill="#000000"/>
<rect x="128" y="336" width="22" height="24" fill="#000000"/>
<rect x="160" y="336" width="22" height="24" fill="#000000"/>
<rect x="192" y="336" width="22" height="24" fill="#000000"/>
<rect x="224" y="336" width="22" height="24" fill="#000000"/>
<rect x="256" y="336" width="22" height="24" fill="#000000"/>
<rect x="288" y="336" width="22" height="24" fill="#000000"/>
<rect x="320" y="336" width="22" height="24" fill="#000000"/>
<text x="36" y="354" font-family="DejaVu Sans Mono,Menlo,Consolas,monospace" font-size="11" fill="#969eb0" text-anchor="end" shape-rendering="auto">16</text>
<rect x="44" y="398" width="324" height="4" fill="#545860"/>
<rect x="64" y="372" width="22" height="24" fill="#000000"/>
<rect x="96" y="372" width="22" height="24" fill="#000000"/>
<rect x="128" y="372" width="22" height="24" fill="#000000"/>
<rect x="160" y="372" width="22" height="24" fill="#000000"/>
<rect x="192" y="372" width="22" height="24" fill="#000000"/>
<rect x="224" y="372" width="22" height="24" fill="#000000"/>
<rect x="256" y="372" width="22" height="24" fill="#000000"/>
<rect x="288" y="372" width="22" height="24" fill="#000000"/>
<rect x="320" y="372" width="22" height="24" fill="#000000"/>
<rect x="44" y="434" width="324" height="4" fill="#545860"/>
<rect x="64" y="408" width="22" height="24" fill="#000000"/>
<rect x="96" y="408" width="22" height="24" fill="#000000"/>
<rect x="128" y="408" width="22" height="24" fill="#000000"/>
<rect x="160" y="408" width="22" height="24" fill="#000000"/>
<rect x="192" y="408" width="22" height="24" fill="#000000"/>
<rect x="224" y="408" width="22" height="24" fill="#000000"/>
<rect x="256" y="408" width="22" height="24" fill="#000000"/>
<rect x="288" y="408" width="22" height="24" fill="#000000"/>
<rect x="320" y="408" width="22" height="24" fill="#000000"/>
<text x="36" y="426" font-family="DejaVu Sans Mono,Menlo,Consolas,monospace" font-size="11" fill="#969eb0" text-anchor="end" shape-rendering="auto">14</text>
<rect x="44" y="470" width="324" height="4" fill="#545860"/>
<rect x="64" y="444" width="22" height="24" fill="#000000"/>
<rect x="96" y="444" width="22" height="24" fill="#000000"/>
<rect x="128" y="444" width="22" height="24" fill="#000000"/>
<rect x="160" y="444" width="22" height="24" fill="#000000"/>
<rect x="192" y="444" width="22" height="24" fill="#000000"/>
<rect x="224" y="444" width="22" height="24" fill="#000000"/>
<rect x="256" y="444" width="22" height="24" fill="#000000"/>
<rect x="288" y="444" width="22" height="24" fill="#000000"/>
<rect x="320" y="444" width="22" height="24" fill="#000000"/>
<rect x="44" y="506" width="324" height="4" fill="#545860"/>
<rect x="64" y="480" width="22" height="24" fill="#000000"/>
<rect x="96" y="480" width="22" height="24" fill="#000000"/>
<rect x="128" y="480" width="22" height="24" fill="#000000"/>
<rect x="160" y="480" width="22" height="24" fill="#000000"/>
<rect x="192" y="480" width="22" height="24" fill="#000000"/>
<rect x="224" y="480" width="22" height="24" fill="#000000"/>
<rect x="256" y="480" width="22" height="24" fill="#000000"/>
<rect x="288" y="480" width="22" height="24" fill="#000000"/>
<rect x="320" y="480" width="22" height="24" fill="#000000"/>
<text x="36" y="498" font-family="DejaVu Sans Mono,Menlo,Consolas,monospace" font-size="11" fill="#969eb0" text-anchor="end" shape-rendering="auto">12</text>
<rect x="44" y="542" width="324" height="4" fill="#545860"/>
<rect x="64" y="516" width="22" height="24" fill="#000000"/>
<rect x="96" y="516" width="22" height="24" fill="#000000"/>
<rect x="128" y="516" width="22" height="24" fill="#000000"/>
<rect x="160" y="516" width="22" height="24" fill="#000000"/>
<rect x="192" y="516" width="22" height="24" fill="#000000"/>
<rect x="224" y="516" width="22" height="24" fill="#000000"/>
<rect x="256" y="516" width="22" height="24" fill="#000000"/>
<rect x="288" y="516" width="22" height="24" fill="#000000"/>
<rect x="320" y="516" width="22" height="24" fill="#000000"/>
<rect x="44" y="578" width="324" height="4" fill="#545860"/>
<rect x="64" y="552" width="22" height="24" fill="#000000"/>
<rect x="96" y="552" width="22" height="24" fill="#000000"/>
<rect x="128" y="552" width="22" height="24" fill="#000000"/>
<rect x="160" y="552" width="22" height="24" fill="#000000"/>
<rect x="192" y="552" width="22" height="24" fill="#000000"/>
<rect x="224" y="552" width="22" height="24" fill="#000000"/>
<rect x="256" y="552" width="22" height="24" fill="#000000"/>
<rect x="288" y="552" width="22" height="24" fill="#000000"/>
<rect x="320" y="552" width="22" height="24" fill="#000000"/>
<text x="36" y="570" font-family="DejaVu Sans Mono,Menlo,Consolas,monospace" font-size="11" fill="#969eb0" text-anchor="end" shape-rendering="auto">10</text>
<rect x="44" y="614" width="324" height="4" fill="#545860"/>
<rect x="64" y="588" width="22" height="24" fill="#000000"/>
<rect x="96" y="588" width="22" height="24" fill="#000000"/>
<rect x="128" y="588" width="22" height="24" fill="#000000"/>
<rect x="160" y="588" width="22" height="24" fill="#000000"/>
<rect x="192" y="588" width="22" height="24" fill="#000000"/>
<rect x="224" y="588" width="22" height="24" fill="#000000"/>
<rect x="256" y="588" width="22" height="24" fill="#000000"/>
<rect x="288" y="588" width="22" height="24" fill="#000000"/>
<rect x="320" y="588" width="22" height="24" fill="#000000"/>
<rect x="44" y="650" width="324" height="4" fill="#545860"/>
<rect x="64" y="624" width="22" height="24" fill="#000000"/>
<rect x="96" y="624" width="22" height="24" fill="#000000"/>
<rect x="128" y="624" width="22" height="24" fill="#000000"/>
<rect x="160" y="624" width="22" height="24" fill="#000000"/>
<rect x="192" y="624" width="22" height="24" fill="#000000"/>
<rect x="224" y="624" width="22" height="24" fill="#000000"/>
<rect x="256" y="624" width="22" height="24" fill="#000000"/>
<rect x="288" y="624" width="22" height="24" fill="#000000"/>
<rect x="320" y="624" width="22" height="24" fill="#000000"/>
<text x="36" y="642" font-family="DejaVu Sans Mono,Menlo,Consolas,monospace" font-size="11" fill="#969eb0" text-anchor="end" shape-rendering="auto">8</text>
<rect x="44" y="686" width="324" height="4" fill="#545860"/>
<rect x="64" y="660" width="22" height="24" fill="#000000"/>
<rect x="96" y="660" width="22" height="24" fill="#000000"/>
<rect x="128" y="660" width="22" height="24" fill="#000000"/>
<rect x="160" y="660" width="22" height="24" fill="#000000"/>
<rect x="192" y="660" width="22" height="24" fill="#000000"/>
<rect x="224" y="660" width="22" height="24" fill="#000000"/>
<rect x="256" y="660" width="22" height="24" fill="#000000"/>
<rect x="288" y="660" width="22" height="24" fill="#000000"/>
<rect x="320" y="660" width="22" height="24" fill="#000000"/>
<rect x="44" y="722" width="324" height="4" fill="#545860"/>
<rect x="64" y="696" width="22" height="24" fill="#000000"/>
<rect x="96" y="696" width="22" height="24" fill="#000000"/>
<rect x="128" y="696" width="22" height="24" fill="#000000"/>
<rect x="160" y="696" width="22" height="24" fill="#000000"/>
<rect x="192" y="696" width="22" height="24" fill="#000000"/>
<rect x="224" y="696" width="22" height="24" fill="#000000"/>
<rect x="256" y="696" width="22" height="24" fill="#000000"/>
<rect x="288" y="696" width="22" height="24" fill="#000000"/>
<rect x="320" y="696" width="22" height="24" fill="#000000"/>
<text x="36" y="714" font-family="DejaVu Sans Mono,Menlo,Consolas,monospace" font-size="11" fill="#969eb0" text-anchor="end" shape-rendering="auto">6</text>
<rect x="44" y="758" width="324" height="4" fill="#545860"/>
<rect x="64" y="732" width="22" height="24" fill="#000000"/>
<rect x="96" y="732" width="22" height="24" fill="#000000"/>
<rect x="128" y="732" width="22" height="24" fill="#000000"/>
<rect x="160" y="732" width="22" height="24" fill="#2a2a2a"/>
<rect x="192" y="732" width="22" height="24" fill="#000000"/>
<rect x="224" y="732" width="22" height="24" fill="#000000"/>
<rect x="256" y="732" width="22" height="24" fill="#000000"/>
<rect x="288" y="732" width="22" height="24" fill="#000000"/>
<rect x="320" y="732" width="22" height="24" fill="#000000"/>
<rect x="44" y="794" width="324" height="4" fill="#545860"/>
<rect x="64" y="768" width="22" height="24" fill="#000000"/>
<rect x="96" y="768" width="22" height="24" fill="#000000"/>
<rect x="128" y="768" width="22" height="24" fill="#000000"/>
<rect x="160" y="768" width="22" height="24" fill="#2a2a2a"/>
<rect x="192" y="768" width="22" height="24" fill="#2a2a2a"/>
<rect x="224" y="768" width="22" height="24" fill="#2a2a2a"/>
<rect x="256" y="768" width="22" height="24" fill="#000000"/>
<rect x="288" y="768" width="22" height="24" fill="#000000"/>
<rect x="320" y="768" width="22" height="24" fill="#000000"/>
<text x="36" y="786" font-family="DejaVu Sans Mono,Menlo,Consolas,monospace" font-size="11" fill="#969eb0" text-anchor="end" shape-rendering="auto">4</text>
<rect x="64" y="838" width="54" height="70" fill="#1e2026"/>
<rect x="128" y="838" width="54" height="70" fill="#1e2026"/>
<rect x="192" y="838" width="54" height="70" fill="#1e2026"/>
<rect x="256" y="838" width="54" height="70" fill="#1e2026"/>
<rect x="320" y="838" width="54" height="70" fill="#1e2026"/>
<text x="216" y="26" font-family="DejaVu Sans Mono,Menlo,Consolas,monospace" font-size="15" fill="#e7ebf3" text-anchor="middle" shape-rendering="auto">f0091 t=3.03s first spawn, frame 91 = first logical play frame</text>
<text x="216" y="46" font-family="DejaVu Sans Mono,Menlo,Consolas,monospace" font-size="11" fill="#969eb0" text-anchor="middle" shape-rendering="auto">MIT Green Building (Bldg 54) - 153 windows = 17 floors x 9 bays</text>
<text x="216" y="62" font-family="DejaVu Sans Mono,Menlo,Consolas,monospace" font-size="10" fill="#969eb0" text-anchor="middle" shape-rendering="auto">floors 20..4 lit; row-&gt;floor mapping PROVISIONAL (SPEC 10.4)</text>
<text x="216" y="958" font-family="DejaVu Sans Mono,Menlo,Consolas,monospace" font-size="10" fill="#969eb0" text-anchor="middle" shape-rendering="auto">sha256(frame RGB) 1a26ee7e4b911824fd9709a1fd018610</text>
<text x="216" y="972" font-family="DejaVu Sans Mono,Menlo,Consolas,monospace" font-size="10" fill="#969eb0" text-anchor="middle" shape-rendering="auto">4084747b218fc3de1b3ac855eb782207</text>
</svg>
